<svg width="28" height="28" viewBox="0 0 28 28" fill="none" xmlns="http://www.w3.org/2000/svg">
<path d="M9.88354 26.3816H17.498C23.8434 26.3816 26.3816 23.8434 26.3816 17.498V9.88354C26.3816 3.53816 23.8434 1 17.498 1H9.88354C3.53816 1 1 3.53816 1 9.88354V17.498C1 23.8434 3.53816 26.3816 9.88354 26.3816Z" stroke="#292D32" stroke-width="1.90362" stroke-linecap="round" stroke-linejoin="round"/>
<path d="M13.6908 18.1326C16.1439 18.1326 18.1326 16.1439 18.1326 13.6908C18.1326 11.2377 16.1439 9.24902 13.6908 9.24902C11.2377 9.24902 9.24902 11.2377 9.24902 13.6908C9.24902 16.1439 11.2377 18.1326 13.6908 18.1326Z" stroke="#292D32" stroke-width="1.90362" stroke-linecap="round" stroke-linejoin="round"/>
<path d="M20.8433 7.3454H20.858" stroke="#292D32" stroke-width="2.53816" stroke-linecap="round" stroke-linejoin="round"/>
</svg>
