<svg width="25" height="25" viewBox="0 0 25 25" fill="none" xmlns="http://www.w3.org/2000/svg">
<path d="M18.8723 25C17.5559 25 16.1696 24.686 14.7367 24.0814C13.3388 23.4884 11.9292 22.6744 10.5545 21.686C9.19152 20.686 7.87512 19.5698 6.62861 18.3488C5.39376 17.1047 4.2754 15.7907 3.28518 14.4419C2.28332 13.0465 1.4795 11.6512 0.908667 10.3023C0.302889 8.86046 0 7.46512 0 6.15116C0 5.24419 0.163094 4.38372 0.477633 3.5814C0.803821 2.75581 1.32805 1.98837 2.03868 1.32558C2.93569 0.441861 3.96086 0 5.05592 0C5.51025 0 5.97623 0.104651 6.37232 0.290698C6.82665 0.5 7.21109 0.813953 7.49068 1.23256L10.1934 5.03488C10.438 5.37209 10.6244 5.69767 10.7526 6.02326C10.904 6.37209 10.9856 6.72093 10.9856 7.05814C10.9856 7.5 10.8574 7.93023 10.6128 8.33721C10.438 8.65116 10.1701 8.98837 9.83225 9.32558L9.04008 10.1512C9.05172 10.186 9.06337 10.2093 9.07502 10.2326C9.21482 10.4767 9.49441 10.8953 10.0303 11.5233C10.6011 12.1744 11.137 12.7674 11.6729 13.314C12.3602 13.9884 12.931 14.5233 13.4669 14.9651C14.1309 15.5233 14.562 15.8023 14.8183 15.9302L14.795 15.9884L15.6454 15.1512C16.0065 14.7907 16.356 14.5233 16.6938 14.3488C17.3346 13.9535 18.15 13.8837 18.9655 14.2209C19.2684 14.3488 19.5946 14.5233 19.9441 14.7674L23.8117 17.5116C24.2428 17.8023 24.5573 18.1744 24.7437 18.6163C24.9185 19.0581 25 19.4651 25 19.8721C25 20.4302 24.8719 20.9884 24.6272 21.5116C24.3826 22.0349 24.0797 22.4884 23.6952 22.907C23.0312 23.6395 22.3089 24.1628 21.4702 24.5C20.6664 24.8256 19.7926 25 18.8723 25ZM5.05592 1.74419C4.41519 1.74419 3.82106 2.02326 3.25023 2.5814C2.71435 3.0814 2.34157 3.62791 2.10857 4.22093C1.86393 4.82558 1.74744 5.46512 1.74744 6.15116C1.74744 7.23256 2.00373 8.40698 2.51631 9.61628C3.04054 10.8488 3.77446 12.1279 4.70643 13.407C5.6384 14.686 6.69851 15.9302 7.86347 17.1047C9.02843 18.2558 10.2866 19.3256 11.5797 20.2674C12.8378 21.186 14.1309 21.9302 15.4124 22.4651C17.4045 23.314 19.2684 23.5116 20.8062 22.8721C21.4003 22.6279 21.9245 22.2558 22.4021 21.7209C22.6701 21.4302 22.8798 21.1163 23.0545 20.7442C23.1943 20.4535 23.2642 20.1512 23.2642 19.8488C23.2642 19.6628 23.2293 19.4767 23.1361 19.2674C23.1011 19.1977 23.0312 19.0698 22.8099 18.9186L18.9422 16.1744C18.7092 16.0116 18.4995 15.8953 18.3015 15.814C18.0452 15.7093 17.9404 15.6047 17.5443 15.8488C17.3113 15.9651 17.1016 16.1395 16.8686 16.3721L15.9832 17.2442C15.5289 17.686 14.8299 17.7907 14.294 17.593L13.9795 17.4535C13.5019 17.1977 12.9427 16.8023 12.3253 16.2791C11.7661 15.8023 11.1603 15.2442 10.4264 14.5233C9.85555 13.9419 9.28472 13.3256 8.69059 12.6395C8.14306 12 7.74697 11.4535 7.50233 11L7.36254 10.6512C7.29264 10.3837 7.26934 10.2326 7.26934 10.0698C7.26934 9.65116 7.42078 9.27907 7.71202 8.98837L8.58574 8.08139C8.81873 7.84884 8.99348 7.62791 9.10997 7.43023C9.20317 7.27907 9.23812 7.15116 9.23812 7.03488C9.23812 6.94186 9.20317 6.80233 9.14492 6.66279C9.06337 6.47674 8.93523 6.26744 8.77213 6.04651L6.06943 2.23256C5.95294 2.06977 5.81314 1.95349 5.6384 1.87209C5.452 1.7907 5.25396 1.74419 5.05592 1.74419ZM14.795 16L14.6086 16.7907L14.9231 15.9767C14.8649 15.9651 14.8183 15.9767 14.795 16Z" fill="#292D32"/>
</svg>
