<svg width="28" height="28" viewBox="0 0 28 28" fill="none" xmlns="http://www.w3.org/2000/svg">
<path d="M15.8833 2.81775L18.1166 7.2844C18.4212 7.90619 19.2333 8.50258 19.9185 8.61679L23.9664 9.28932C26.555 9.72076 27.1641 11.5988 25.2988 13.4514L22.1518 16.5984C21.6189 17.1313 21.327 18.1592 21.492 18.8952L22.3929 22.7908C23.1035 25.8743 21.4666 27.0671 18.7384 25.4555L14.9443 23.2095C14.2591 22.8035 13.1297 22.8035 12.4318 23.2095L8.63764 25.4555C5.92211 27.0671 4.2725 25.8616 4.9831 22.7908L5.88405 18.8952C6.04901 18.1592 5.75715 17.1313 5.2242 16.5984L2.07724 13.4514C0.224595 11.5988 0.820994 9.72076 3.40962 9.28932L7.45753 8.61679C8.13006 8.50258 8.94218 7.90619 9.24673 7.2844L11.4801 2.81775C12.6983 0.394083 14.6778 0.394083 15.8833 2.81775Z" stroke="#292D32" stroke-width="1.9034" stroke-linecap="round" stroke-linejoin="round"/>
</svg>
