<svg width="26" height="30" viewBox="0 0 26 30" fill="none" xmlns="http://www.w3.org/2000/svg">
<path d="M12.6883 17.4806C9.80637 17.4806 7.45215 15.1399 7.45215 12.2445C7.45215 9.34913 9.80637 7.02197 12.6883 7.02197C15.5702 7.02197 17.9244 9.36266 17.9244 12.258C17.9244 15.1534 15.5702 17.4806 12.6883 17.4806ZM12.6883 9.05147C10.9294 9.05147 9.48165 10.4857 9.48165 12.258C9.48165 14.0305 10.9159 15.4646 12.6883 15.4646C14.4607 15.4646 15.8949 14.0305 15.8949 12.258C15.8949 10.4857 14.4472 9.05147 12.6883 9.05147Z" fill="#292D32"/>
<path d="M12.6866 29.103C10.6842 29.103 8.66818 28.3453 7.0987 26.8435C3.10735 23.001 -1.30342 16.8719 0.360765 9.57924C1.86259 2.96307 7.6399 0 12.6866 0H12.7001C17.7468 0 23.5241 2.96307 25.026 9.59277C26.6766 16.8854 22.2658 23.001 18.2745 26.8435C16.705 28.3453 14.689 29.103 12.6866 29.103ZM12.6866 2.0295C8.74936 2.0295 3.68914 4.12665 2.34967 10.0257C0.888435 16.3984 4.89331 21.8915 8.51935 25.3687C10.8601 27.6282 14.5267 27.6282 16.8674 25.3687C20.4799 21.8915 24.4848 16.3984 23.0506 10.0257C21.6976 4.12665 16.6238 2.0295 12.6866 2.0295Z" fill="#292D32"/>
</svg>
